<?xml version="1.0" encoding="utf-8"?>
<!-- Generator: Adobe Illustrator 23.0.6, SVG Export Plug-In . SVG Version: 6.00 Build 0)  -->
<svg version="1.1" id="Layer_1" xmlns="http://www.w3.org/2000/svg" xmlns:xlink="http://www.w3.org/1999/xlink" x="0px" y="0px"
	 viewBox="0 0 595.28 267.95" style="enable-background:new 0 0 595.28 267.95;" xml:space="preserve">
<style type="text/css">
	.st0{fill:#FFFFFF;}
	.st1{fill:#151616;}
	.st2{fill:#EBB630;}
</style>
<g>
	<g>
		<g>
			<g>
				<g>
					<path class="st0" d="M186.13,156.71l-32.11-29.07l-56.77,44.04L5.24,100.3v70.3c0,4.36,2.05,8.47,5.53,11.09l86.47,65.1
						l85.32-64.24c3.65-2.74,5.98-6.84,6.55-11.3C189.82,165.58,186.13,156.71,186.13,156.71z"/>
				</g>
			</g>
			<path class="st1" d="M150.84,130.1"/>
			<g>
				<g>
					<path class="st2" d="M183.64,80.18l-56.32-42.4v75.81l54.87,42.57c0,0,6.43,5.26,6.99,14.67V91.27
						C189.18,86.91,187.13,82.8,183.64,80.18z"/>
				</g>
				<g>
					<polygon class="st2" points="115.3,28.65 92.49,11.48 92.49,86.6 115.3,104.3 					"/>
				</g>
			</g>
		</g>
	</g>
	<g>
		<path class="st0" d="M288.26,177.3c-2.53-2.31-5.24-4.42-7.51-6.93c-5.9-6.5-8.14-14.35-8.21-23.03
			c-0.14-19.24,14.53-30.5,27.3-33.56c9.44-2.26,18.91-1.97,27.95,1.55c10.7,4.18,19.11,11.05,21.93,22.84
			c2.73,11.42,1.83,22.5-5.4,32.2c-7.65,10.27-18.4,13.97-30.9,13.16c-2.03-0.13-4.04-0.5-6.06-0.71c-1.47-0.16-0.92-0.18-1.65,0.1
			c-2.01,0.86-4.02,1.73-5.94,2.77c-1.39,0.75-2.5,1.83-2.13,3.68c0.27,1.37,1.59,2.56,3.57,2.6c2.68,0.06,5.4-0.01,8.03-0.45
			c5.82-0.97,11.6-2.26,17.56-1.92c5.31,0.3,10.55,0.95,15.5,3.05c8.05,3.41,12.41,9.57,13.47,18.17c0.47,3.78,0.41,7.52-0.5,11.23
			c-1.48,6.01-4.97,10.65-9.91,14.25c-6.59,4.81-14.04,7.6-22.05,8.79c-12.31,1.83-24.36,0.82-36-3.88
			c-4.9-1.98-11.68-5.79-14.24-8.11c4.56-5.64,9.13-11.28,13.7-16.91c1.77,1.35,3.37,2.68,5.08,3.87c7.87,5.51,16.63,7.37,26.1,6.34
			c3.56-0.39,7.07-0.99,10.31-2.57c1.49-0.73,2.98-1.63,4.15-2.78c3.64-3.57,2.75-9.58-1.91-11.63c-2.49-1.09-5.39-1.75-8.1-1.76
			c-4.82-0.02-9.65,0.49-14.46,0.99c-6.97,0.71-13.91,1.19-20.77-0.81c-8.91-2.61-12.15-9.65-10.82-17.14
			c0.85-4.79,4.14-8.08,7.87-10.88C285.52,178.83,286.98,178.09,288.26,177.3z M312.16,166.12c8.38-0.02,13.94-4.33,15.67-12.52
			c0.56-2.65,0.71-5.48,0.47-8.18c-0.6-6.63-3.93-11.67-10.27-13.92c-6.58-2.33-12.9-1.34-18.17,3.6c-4,3.76-5.18,8.61-4.94,13.92
			C295.36,159.39,302.17,166.14,312.16,166.12z"/>
		<path class="st0" d="M453.51,208.72c-7.33,0-14.5,0-21.87,0c0-0.73,0-1.38,0-2.02c0-17.43,0.04-34.86-0.04-52.29
			c-0.01-3.04-0.31-6.11-0.86-9.1c-1.56-8.49-5.86-12.7-14.46-14.01c-9.53-1.45-17.18,2.23-23.55,9.05c0,22.84,0,45.52,0,68.33
			c-7.28,0-14.48,0-21.81,0c0-27.05,0-54.13,0-81.18c8.97,0.78,17.09-1.75,24.76-6.14c3.49-2,6.94-4.09,10.58-5.78
			c17.55-8.15,38.76,1.09,44.91,19.44c1.68,5.03,2.36,10.22,2.37,15.48c0.05,19.01,0.02,38.02,0.02,57.03
			C453.57,207.88,453.53,208.23,453.51,208.72z"/>
		<path class="st0" d="M586.11,119.26c-2.1,5.67-4.15,11.19-6.25,16.86c-0.74-0.51-1.38-0.97-2.04-1.4
			c-5.74-3.74-12.16-4.8-18.84-4.55c-2.05,0.08-4.2,0.42-6.08,1.18c-4.94,1.99-6.5,8.49-3.02,12.52c1.3,1.5,3,2.83,4.78,3.71
			c4.51,2.24,9.13,4.25,13.76,6.22c4.99,2.12,9.84,4.45,13.99,8.02c7.15,6.14,9.7,14.1,9,23.27c-1.05,13.76-11,21.28-22.13,23.86
			c-14.97,3.47-29.45,2.16-42.95-5.8c-0.17-0.1-0.32-0.24-0.62-0.47c2.54-5.69,5.09-11.39,7.7-17.24c0.53,0.35,0.94,0.61,1.34,0.89
			c7.43,5.34,15.68,7.6,24.79,6.6c0.71-0.08,1.41-0.21,2.1-0.39c6.78-1.73,9.38-8.73,5.31-14.86c-1.22-1.84-3.05-3.52-4.97-4.61
			c-4.24-2.4-8.67-4.48-13.12-6.5c-5.98-2.71-11.71-5.77-16.3-10.57c-7-7.32-8.91-15.94-6.03-25.55
			c2.02-6.75,6.95-10.98,13.08-13.97c5.9-2.87,12.21-3.82,18.69-3.84c9.2-0.04,17.99,1.86,26.31,5.83
			C585.07,118.7,585.51,118.94,586.11,119.26z"/>
		<path class="st0" d="M231.53,80.53c4.09-2.43,8.1-4.56,11.84-7.1c3.73-2.54,7.17-5.48,10.77-8.27c0,47.75,0,95.57,0,143.53
			c-7.51,0-15.01,0-22.61,0C231.53,165.87,231.53,123.12,231.53,80.53z"/>
		<path class="st0" d="M506.19,208.76c-7.53,0-14.91,0-22.44,0c0-27.59,0-55.13,0-82.9c8.11-3.8,15.59-8.83,22.44-15.36
			C506.19,143.41,506.19,176.01,506.19,208.76z"/>
		<path class="st0" d="M507.46,90.54c-0.02,7.06-5.66,12.7-12.72,12.69c-7.13-0.01-12.72-5.69-12.67-12.87
			c0.05-7.05,5.78-12.72,12.77-12.63C501.93,77.83,507.48,83.45,507.46,90.54z"/>
	</g>
</g>
</svg>
